<?xml version="1.0" encoding="UTF-8"?>
<svg width="79px" height="31px" viewBox="0 0 79 31" version="1.1" xmlns="http://www.w3.org/2000/svg" xmlns:xlink="http://www.w3.org/1999/xlink">
    <!-- Generator: Sketch 46.2 (44496) - http://www.bohemiancoding.com/sketch -->
    <title>logo/dark/esoft</title>
    <desc>Created with Sketch.</desc>
    <defs></defs>
    <g id="Page-1" stroke="none" stroke-width="1" fill="none" fill-rule="evenodd">
        <g id="Apple-TV-Copy-4" transform="translate(-502.000000, -36.000000)">
            <g id="logo/dark/esoft" transform="translate(502.000000, 36.000000)">
                <g>
                    <g id="logo" fill-rule="nonzero">
                        <g id="Group">
                            <g id="Vector" transform="translate(0.000000, 11.000000)" fill="#00AAFF">
                                <g id="path7_fill-link" transform="translate(0.000000, 0.750000)">
                                    <polygon id="path7_fill" points="6.525 7.5 0 3.75 6.525 0"></polygon>
                                </g>
                            </g>
                            <g id="Vector" transform="translate(6.000000, 8.000000)" fill="#00AAFF">
                                <g id="path8_fill-link" transform="translate(0.520000, 0.000000)">
                                    <polygon id="path8_fill" points="6.45 7.5 -1.43051e-07 3.75 6.45 0"></polygon>
                                </g>
                            </g>
                            <g id="Vector" transform="translate(12.000000, 4.000000)" fill="#00AAFF">
                                <g id="path9_fill-link" transform="translate(0.980000, 0.250000)">
                                    <polygon id="path9_fill" points="6.525 7.5 -5.72205e-07 3.75 6.525 0"></polygon>
                                </g>
                            </g>
                            <g id="Vector" transform="translate(19.000000, 8.000000)" fill="#00AAFF">
                                <g id="path10_fill-link" transform="translate(0.500000, 0.000000)">
                                    <polygon id="path10_fill" points="6.45 7.5 0 3.75 6.45 0"></polygon>
                                </g>
                            </g>
                            <g id="Vector" transform="translate(0.000000, 4.000000)" fill="#00AAFF">
                                <g id="path7_fill-link" transform="translate(0.000000, 0.250000)">
                                    <polygon id="path7_fill" points="6.525 7.5 0 3.75 6.525 0"></polygon>
                                </g>
                            </g>
                            <g id="Vector" transform="translate(6.000000, 0.000000)" fill="#00AAFF">
                                <g id="path8_fill-link" transform="translate(0.520000, 0.500000)">
                                    <polygon id="path8_fill" points="6.45 7.5 -1.43051e-07 3.75 6.45 0"></polygon>
                                </g>
                            </g>
                            <g id="Vector" transform="translate(6.000000, 15.000000)" fill="#00AAFF">
                                <g id="path8_fill-link" transform="translate(0.520000, 0.500000)">
                                    <polygon id="path8_fill" points="6.45 7.5 -1.43051e-07 3.75 6.45 0"></polygon>
                                </g>
                            </g>
                            <g id="Vector" transform="translate(0.000000, 19.000000)" fill="#00AAFF">
                                <g id="path7_fill-link" transform="translate(0.000000, 0.250000)">
                                    <polygon id="path7_fill" points="6.525 7.5 0 3.75 6.525 0"></polygon>
                                </g>
                            </g>
                            <g id="Vector" transform="translate(6.000000, 23.000000)" fill="#00AAFF">
                                <g id="path8_fill-link" transform="translate(0.520000, 0.000000)">
                                    <polygon id="path8_fill" points="6.45 7.5 -1.43051e-07 3.75 6.45 0"></polygon>
                                </g>
                            </g>
                            <g id="Vector" transform="translate(12.000000, 19.000000)" fill="#00AAFF">
                                <g id="path9_fill-link" transform="translate(0.980000, 0.250000)">
                                    <polygon id="path9_fill" points="6.525 7.5 -5.72205e-07 3.75 6.525 0"></polygon>
                                </g>
                            </g>
                            <g id="Vector" transform="translate(19.000000, 15.000000)" fill="#00AAFF">
                                <g id="path10_fill-link" transform="translate(0.500000, 0.500000)">
                                    <polygon id="path10_fill" points="6.45 7.5 0 3.75 6.45 0"></polygon>
                                </g>
                            </g>
                            <g id="Vector" transform="translate(12.000000, 11.000000)" fill="#00AAFF">
                                <g id="path9_fill-link" transform="translate(0.980000, 0.750000)">
                                    <polygon id="path9_fill" points="6.525 7.5 -5.72205e-07 3.75 6.525 0"></polygon>
                                </g>
                            </g>
                            <g id="Vector" fill="#0091EA">
                                <g transform="translate(0.000000, 8.000000)">
                                    <g id="path11_fill-link">
                                        <polygon id="path11_fill" points="6.525 3.75 4.35 5.025 0 7.5 0 0 2.175 1.275"></polygon>
                                    </g>
                                </g>
                                <g transform="translate(6.000000, 4.000000)">
                                    <g id="path12_fill-link" transform="translate(0.520000, 0.250000)">
                                        <polygon id="path12_fill" points="-1.43051e-07 0 -1.43051e-07 7.5 6.45 3.75"></polygon>
                                    </g>
                                </g>
                                <g transform="translate(12.000000, 0.000000)">
                                    <g id="path13_fill-link" transform="translate(0.980000, 0.500000)">
                                        <polygon id="path13_fill" points="-5.72205e-07 0 -5.72205e-07 7.5 6.525 3.75"></polygon>
                                    </g>
                                </g>
                                <g transform="translate(6.000000, 19.000000)">
                                    <g id="path12_fill-link" transform="translate(0.520000, 0.250000)">
                                        <polygon id="path12_fill" points="-1.43051e-07 0 -1.43051e-07 7.5 6.45 3.75"></polygon>
                                    </g>
                                </g>
                                <g transform="translate(12.000000, 23.000000)">
                                    <g id="path13_fill-link" transform="translate(0.980000, 0.000000)">
                                        <polygon id="path13_fill" points="-5.72205e-07 0 -5.72205e-07 7.5 6.525 3.75"></polygon>
                                    </g>
                                </g>
                                <g transform="translate(12.000000, 15.000000)">
                                    <g id="path13_fill-link" transform="translate(0.980000, 0.500000)">
                                        <polygon id="path13_fill" points="-5.72205e-07 0 -5.72205e-07 7.5 6.525 3.75"></polygon>
                                    </g>
                                </g>
                                <g transform="translate(19.000000, 11.000000)">
                                    <g id="path14_fill-link" transform="translate(0.500000, 0.750000)">
                                        <polygon id="path14_fill" points="0 0 0 7.5 6.45 3.75"></polygon>
                                    </g>
                                </g>
                                <g transform="translate(6.000000, 11.000000)">
                                    <g id="path12_fill-link" transform="translate(0.520000, 0.750000)">
                                        <polygon id="path12_fill" points="-1.43051e-07 0 -1.43051e-07 7.5 6.45 3.75"></polygon>
                                    </g>
                                </g>
                                <g transform="translate(0.000000, 15.000000)">
                                    <g id="path15_fill-link" transform="translate(0.000000, 0.500000)">
                                        <polygon id="path15_fill" points="6.525 3.75 0 7.5 0 0"></polygon>
                                    </g>
                                </g>
                                <g transform="translate(12.000000, 8.000000)">
                                    <g id="path13_fill-link" transform="translate(0.980000, 0.000000)">
                                        <polygon id="path13_fill" points="-5.72205e-07 0 -5.72205e-07 7.5 6.525 3.75"></polygon>
                                    </g>
                                </g>
                                <g transform="translate(19.000000, 4.000000)">
                                    <g id="path14_fill-link" transform="translate(0.500000, 0.250000)">
                                        <polygon id="path14_fill" points="0 0 0 7.5 6.45 3.75"></polygon>
                                    </g>
                                </g>
                                <g transform="translate(19.000000, 19.000000)">
                                    <g id="path14_fill-link" transform="translate(0.500000, 0.250000)">
                                        <polygon id="path14_fill" points="0 0 0 7.5 6.45 3.75"></polygon>
                                    </g>
                                </g>
                            </g>
                        </g>
                        <g id="Vector" transform="translate(2.000000, 2.000000)" fill="#FFFFFF">
                            <g id="path16_fill-link" transform="translate(0.170000, 0.975000)">
                                <polygon id="path16_fill" points="12.975 3.75 10.8 -3.57628e-08 7.15256e-08 6.3 10.8 25.05 21.675 18.75 19.5 15 12.975 18.75 10.8 15 17.325 11.25 15.15 7.5 8.625 11.25 6.45 7.5"></polygon>
                            </g>
                        </g>
                    </g>
                    <path d="M37.8691406,20.1953125 C37.0878867,20.1953125 36.3847687,20.0651055 35.7597656,19.8046875 C35.1347625,19.5442695 34.6041688,19.1862002 34.1679688,18.7304688 C33.7317687,18.2747373 33.3964855,17.7343781 33.1621094,17.109375 C32.9277332,16.4843719 32.8105469,15.8105505 32.8105469,15.0878906 L32.8105469,14.6972656 C32.8105469,13.8639281 32.9342436,13.1103549 33.1816406,12.4365234 C33.4290377,11.7626919 33.767576,11.189781 34.1972656,10.7177734 C34.6269553,10.2457659 35.1331351,9.88118618 35.7158203,9.62402344 C36.2985055,9.36686069 36.9251269,9.23828125 37.5957031,9.23828125 C38.3639361,9.23828125 39.0312472,9.36686069 39.5976562,9.62402344 C40.1640653,9.88118618 40.6328106,10.2408831 41.0039062,10.703125 C41.3750019,11.1653669 41.6516918,11.7154916 41.8339844,12.3535156 C42.016277,12.9915396 42.1074219,13.6914024 42.1074219,14.453125 L42.1074219,15.46875 L35.203125,15.46875 C35.2356772,15.8789083 35.3219394,16.2565087 35.4619141,16.6015625 C35.6018887,16.9466163 35.7923165,17.2444649 36.0332031,17.4951172 C36.2740897,17.7457695 36.5589176,17.9427076 36.8876953,18.0859375 C37.216473,18.2291674 37.5891906,18.3007812 38.0058594,18.3007812 C38.5917998,18.3007812 39.1012348,18.1835949 39.5341797,17.9492188 C39.9671246,17.7148426 40.3430974,17.3925802 40.6621094,16.9824219 L41.9414062,18.203125 C41.7721346,18.4570325 41.5621757,18.7027983 41.3115234,18.9404297 C41.0608711,19.1780611 40.7679053,19.3896475 40.4326172,19.5751953 C40.0973291,19.7607431 39.7181011,19.9104812 39.2949219,20.0244141 C38.8717427,20.1383469 38.396487,20.1953125 37.8691406,20.1953125 Z M37.5859375,11.1425781 C36.9348926,11.1425781 36.4091817,11.3704404 36.0087891,11.8261719 C35.6083964,12.2819033 35.3528651,12.9166626 35.2421875,13.7304688 L39.7636719,13.7304688 L39.7636719,13.5546875 C39.7441405,13.2421859 39.6936853,12.9410822 39.6123047,12.6513672 C39.5309241,12.3616522 39.4055998,12.1044933 39.2363281,11.8798828 C39.0670564,11.6552723 38.8473321,11.4762376 38.5771484,11.3427734 C38.3069648,11.2093092 37.9765645,11.1425781 37.5859375,11.1425781 Z M50.1710938,17.1289062 C50.1710938,16.9596346 50.1434248,16.8017585 50.0880859,16.6552734 C50.0327471,16.5087883 49.9236987,16.3720709 49.7609375,16.2451172 C49.5981763,16.1181634 49.3686864,15.9993495 49.0724609,15.8886719 C48.7762355,15.7779942 48.3904972,15.6738286 47.9152344,15.5761719 C47.3488253,15.4589838 46.8328799,15.3125009 46.3673828,15.1367188 C45.9018857,14.9609366 45.5031267,14.7477226 45.1710938,14.4970703 C44.8390609,14.246418 44.5802744,13.9518246 44.3947266,13.6132812 C44.2091788,13.2747379 44.1164063,12.8841168 44.1164063,12.4414062 C44.1164063,12.0117166 44.2108064,11.603192 44.3996094,11.2158203 C44.5884124,10.8284486 44.8602196,10.4882827 45.2150391,10.1953125 C45.5698586,9.90234229 45.9995418,9.66959722 46.5041016,9.49707031 C47.0086614,9.32454341 47.5734344,9.23828125 48.1984375,9.23828125 C48.8559929,9.23828125 49.4468073,9.32454341 49.9708984,9.49707031 C50.4949896,9.66959722 50.9393211,9.90722505 51.3039063,10.2099609 C51.6684914,10.5126968 51.9468089,10.8691386 52.1388672,11.2792969 C52.3309255,11.6894552 52.4269531,12.1321591 52.4269531,12.6074219 L50.0539063,12.6074219 C50.0539063,12.4055979 50.0148442,12.2086598 49.9367188,12.0166016 C49.8585934,11.8245433 49.741407,11.6536466 49.5851563,11.5039062 C49.4289055,11.3541659 49.2352225,11.235352 49.0041016,11.1474609 C48.7729806,11.0595699 48.5044286,11.015625 48.1984375,11.015625 C47.8989568,11.015625 47.6385428,11.0530595 47.4171875,11.1279297 C47.1958322,11.2027999 47.0119148,11.3004551 46.8654297,11.4208984 C46.7189446,11.5413417 46.6098962,11.6813143 46.5382813,11.8408203 C46.4666663,12.0003263 46.4308594,12.1679679 46.4308594,12.34375 C46.4308594,12.5195321 46.4634111,12.6757806 46.5285156,12.8125 C46.5936201,12.9492194 46.7091789,13.0729161 46.8751953,13.1835938 C47.0412118,13.2942714 47.2641913,13.3968094 47.5441406,13.4912109 C47.82409,13.5856125 48.1756489,13.678385 48.5988281,13.7695312 C49.2108104,13.8997402 49.7593075,14.0527335 50.2443359,14.2285156 C50.7293644,14.4042978 51.1395166,14.6191394 51.4748047,14.8730469 C51.8100928,15.1269544 52.0656241,15.4264306 52.2414063,15.7714844 C52.4171884,16.1165382 52.5050781,16.5266903 52.5050781,17.0019531 C52.5050781,17.4707055 52.4041677,17.9003887 52.2023438,18.2910156 C52.0005198,18.6816426 51.7124368,19.0185533 51.3380859,19.3017578 C50.9637351,19.5849624 50.5128933,19.8046867 49.9855469,19.9609375 C49.4582005,20.1171883 48.8722689,20.1953125 48.2277344,20.1953125 C47.5050745,20.1953125 46.8654325,20.0927745 46.3087891,19.8876953 C45.7521457,19.6826162 45.2850279,19.4140642 44.9074219,19.0820312 C44.5298158,18.7499983 44.244988,18.3740255 44.0529297,17.9541016 C43.8608714,17.5341776 43.7648438,17.106122 43.7648438,16.6699219 L46.0695313,16.6699219 C46.0890626,16.9954443 46.1639317,17.2688791 46.2941406,17.4902344 C46.4243496,17.7115896 46.5903636,17.8906243 46.7921875,18.0273438 C46.9940114,18.1640632 47.2218737,18.263346 47.4757813,18.3251953 C47.7296888,18.3870446 47.9901028,18.4179688 48.2570313,18.4179688 C48.8820344,18.4179688 49.3572901,18.2991548 49.6828125,18.0615234 C50.008335,17.823892 50.1710938,17.5130228 50.1710938,17.1289062 Z M54.4261719,14.6191406 C54.4261719,13.8509076 54.5384755,13.1396517 54.763086,12.4853516 C54.9876965,11.8310514 55.3099589,11.2630232 55.7298828,10.78125 C56.1498068,10.2994768 56.662497,9.92187637 57.2679688,9.6484375 C57.8734406,9.37499863 58.5602826,9.23828125 59.3285156,9.23828125 C60.1032591,9.23828125 60.7966115,9.37499863 61.4085938,9.6484375 C62.020576,9.92187637 62.5365214,10.2994768 62.9564453,10.78125 C63.3763693,11.2630232 63.6970041,11.8310514 63.9183594,12.4853516 C64.1397147,13.1396517 64.2503906,13.8509076 64.2503906,14.6191406 L64.2503906,14.8242188 C64.2503906,15.5924518 64.1397147,16.3053353 63.9183594,16.9628906 C63.6970041,17.620446 63.3763693,18.1884742 62.9564453,18.6669922 C62.5365214,19.1455102 62.0222036,19.5198554 61.4134766,19.7900391 C60.8047496,20.0602227 60.1162799,20.1953125 59.3480469,20.1953125 C58.5733034,20.1953125 57.8815786,20.0602227 57.2728516,19.7900391 C56.6641246,19.5198554 56.1498068,19.1455102 55.7298828,18.6669922 C55.3099589,18.1884742 54.9876965,17.620446 54.763086,16.9628906 C54.5384755,16.3053353 54.4261719,15.5924518 54.4261719,14.8242188 L54.4261719,14.6191406 Z M56.7992188,14.8242188 C56.7992188,15.2994815 56.8480464,15.7486958 56.9457031,16.171875 C57.0433599,16.5950542 57.1963531,16.9645167 57.4046875,17.2802734 C57.6130219,17.5960302 57.8783187,17.8450512 58.200586,18.0273438 C58.5228532,18.2096363 58.9053364,18.3007812 59.3480469,18.3007812 C59.784247,18.3007812 60.163475,18.2096363 60.4857422,18.0273438 C60.8080094,17.8450512 61.0716787,17.5960302 61.2767578,17.2802734 C61.481837,16.9645167 61.6348302,16.5950542 61.7357422,16.171875 C61.8366542,15.7486958 61.8871094,15.2994815 61.8871094,14.8242188 L61.8871094,14.6191406 C61.8871094,14.1503883 61.8366542,13.7060568 61.7357422,13.2861328 C61.6348302,12.8662088 61.4802094,12.498374 61.271875,12.1826172 C61.0635406,11.8668604 60.7982438,11.6145843 60.4759766,11.4257812 C60.1537094,11.2369782 59.7712262,11.1425781 59.3285156,11.1425781 C58.8858051,11.1425781 58.5065771,11.2369782 58.1908203,11.4257812 C57.8750635,11.6145843 57.6130219,11.8668604 57.4046875,12.1826172 C57.1963531,12.498374 57.0433599,12.8662088 56.9457031,13.2861328 C56.8480464,13.7060568 56.7992188,14.1503883 56.7992188,14.6191406 L56.7992188,14.8242188 Z M67.3921875,20 L67.3921875,11.1914062 L65.7808594,11.1914062 L65.7808594,9.43359375 L67.3921875,9.43359375 L67.3921875,8.4375 C67.3921875,7.85155957 67.4784497,7.33073145 67.6509766,6.875 C67.8235035,6.41926855 68.0692693,6.03841299 68.3882813,5.73242188 C68.7072933,5.42643076 69.0962868,5.19368569 69.5552735,5.03417969 C70.0142601,4.87467368 70.5302055,4.79492188 71.103125,4.79492188 C71.3309908,4.79492188 71.5572255,4.81119775 71.781836,4.84375 C72.0064465,4.87630225 72.2229157,4.91861953 72.43125,4.97070312 L72.3726563,6.82617188 C72.2424473,6.80013008 72.1008472,6.78059902 71.9478516,6.76757812 C71.794856,6.75455723 71.6337248,6.74804688 71.4644532,6.74804688 C70.9175754,6.74804688 70.4976578,6.89127461 70.2046875,7.17773438 C69.9117173,7.46419414 69.7652344,7.88411182 69.7652344,8.4375 L69.7652344,9.43359375 L71.9136719,9.43359375 L71.9136719,11.1914062 L69.7652344,11.1914062 L69.7652344,20 L67.3921875,20 Z M76.9207032,6.86523438 L76.9207032,9.43359375 L78.7859375,9.43359375 L78.7859375,11.1914062 L76.9207032,11.1914062 L76.9207032,17.0898438 C76.9207032,17.3307304 76.9467446,17.5260409 76.9988282,17.6757812 C77.0509118,17.8255216 77.1257808,17.9410803 77.2234375,18.0224609 C77.3210943,18.1038416 77.436653,18.1591795 77.5701172,18.1884766 C77.7035814,18.2177736 77.8516919,18.2324219 78.0144532,18.2324219 C78.1772144,18.2324219 78.3350904,18.2210288 78.488086,18.1982422 C78.6410815,18.1754556 78.7598955,18.154297 78.8445313,18.1347656 L78.8445313,19.9707031 C78.6557283,20.0227867 78.4360039,20.0732419 78.1853516,20.1220703 C77.9346993,20.1708987 77.6335956,20.1953125 77.2820313,20.1953125 C76.8914043,20.1953125 76.5284522,20.1432297 76.1931641,20.0390625 C75.857876,19.9348953 75.5681653,19.7656262 75.3240235,19.53125 C75.0798816,19.2968738 74.8894539,18.9908873 74.7527344,18.6132812 C74.616015,18.2356752 74.5476563,17.7734402 74.5476563,17.2265625 L74.5476563,11.1914062 L72.809375,11.1914062 L72.809375,9.43359375 L74.5476563,9.43359375 L74.5476563,6.86523438 L76.9207032,6.86523438 Z" id="esoft-copy" fill="#263238"></path>
                </g>
            </g>
        </g>
    </g>
</svg>